name rise32.9588peak41.5061fall63.4684.mot
datacolumns 19
datarows 21
range 11.75995500000000 11.79328700000000
endheader
time	ground_force1_vx	ground_force1_vy	ground_force1_vz	ground_force1_px	ground_force1_py	ground_force1_pz	ground_force2_vx	ground_force2_vy	ground_force2_vz	ground_force2_px	ground_force2_py	ground_force2_pz	ground_torque1_x	ground_torque1_y	ground_torque1_z	ground_torque2_x	ground_torque2_y	ground_torque2_z	
11.75995500000000	15.22310500000000	705.11386400000004	42.39035400000000	0.21490800000000	0.00000000000000	0.11417000000000	0.00000000000000	0.00000000000000	0.00000000000000	0.00000000000000	0.00000000000000	0.00000000000000	0.00000000000000	14.39341100000000	0.00000000000000	0.00000000000000	0.00000000000000	0.00000000000000	
11.76161900000000	14.92734700000000	706.08174499999996	42.41596800000000	0.21416400000000	0.00000000000000	0.11415200000000	0.00000000000000	0.00000000000000	0.00000000000000	0.00000000000000	0.00000000000000	0.00000000000000	0.00000000000000	14.43008600000000	0.00000000000000	0.00000000000000	0.00000000000000	0.00000000000000	
11.76328600000000	14.61913300000000	707.09494900000004	42.44616500000000	0.21339800000000	0.00000000000000	0.11413400000000	0.00000000000000	0.00000000000000	0.00000000000000	0.00000000000000	0.00000000000000	0.00000000000000	0.00000000000000	14.47118000000000	0.00000000000000	0.00000000000000	0.00000000000000	0.00000000000000	
11.76495900000000	14.29796500000000	708.15182200000004	42.48079100000000	0.21261100000000	0.00000000000000	0.11411800000000	0.00000000000000	0.00000000000000	0.00000000000000	0.00000000000000	0.00000000000000	0.00000000000000	0.00000000000000	14.51669200000000	0.00000000000000	0.00000000000000	0.00000000000000	0.00000000000000	
11.76662200000000	13.96338600000000	709.25072699999998	42.51968900000000	0.21180100000000	0.00000000000000	0.11410200000000	0.00000000000000	0.00000000000000	0.00000000000000	0.00000000000000	0.00000000000000	0.00000000000000	0.00000000000000	14.56661400000000	0.00000000000000	0.00000000000000	0.00000000000000	0.00000000000000	
11.76828800000000	13.61497400000000	710.39004399999999	42.56270200000000	0.21097000000000	0.00000000000000	0.11408700000000	0.00000000000000	0.00000000000000	0.00000000000000	0.00000000000000	0.00000000000000	0.00000000000000	0.00000000000000	14.62093800000000	0.00000000000000	0.00000000000000	0.00000000000000	0.00000000000000	
11.76995500000000	13.25235400000000	711.56817999999998	42.60967300000000	0.21011600000000	0.00000000000000	0.11407200000000	0.00000000000000	0.00000000000000	0.00000000000000	0.00000000000000	0.00000000000000	0.00000000000000	0.00000000000000	14.67964700000000	0.00000000000000	0.00000000000000	0.00000000000000	0.00000000000000	
11.77162200000000	12.87519200000000	712.78356799999995	42.66044300000000	0.20924100000000	0.00000000000000	0.11405800000000	0.00000000000000	0.00000000000000	0.00000000000000	0.00000000000000	0.00000000000000	0.00000000000000	0.00000000000000	14.74272400000000	0.00000000000000	0.00000000000000	0.00000000000000	0.00000000000000	
11.77329200000000	12.48320000000000	714.03467300000000	42.71485200000000	0.20834400000000	0.00000000000000	0.11404500000000	0.00000000000000	0.00000000000000	0.00000000000000	0.00000000000000	0.00000000000000	0.00000000000000	0.00000000000000	14.81014400000000	0.00000000000000	0.00000000000000	0.00000000000000	0.00000000000000	
11.77495500000000	12.07613500000000	715.31999699999994	42.77274000000000	0.20742700000000	0.00000000000000	0.11403200000000	0.00000000000000	0.00000000000000	0.00000000000000	0.00000000000000	0.00000000000000	0.00000000000000	0.00000000000000	14.88187600000000	0.00000000000000	0.00000000000000	0.00000000000000	0.00000000000000	
11.77661900000000	11.65380100000000	716.63807599999996	42.83394700000000	0.20649000000000	0.00000000000000	0.11402000000000	0.00000000000000	0.00000000000000	0.00000000000000	0.00000000000000	0.00000000000000	0.00000000000000	0.00000000000000	14.95788300000000	0.00000000000000	0.00000000000000	0.00000000000000	0.00000000000000	
11.77829400000000	11.21604900000000	717.98748899999998	42.89831200000000	0.20553300000000	0.00000000000000	0.11400900000000	0.00000000000000	0.00000000000000	0.00000000000000	0.00000000000000	0.00000000000000	0.00000000000000	0.00000000000000	15.03812300000000	0.00000000000000	0.00000000000000	0.00000000000000	0.00000000000000	
11.77995800000000	10.76278100000000	719.36685599999998	42.96567400000000	0.20455800000000	0.00000000000000	0.11399800000000	0.00000000000000	0.00000000000000	0.00000000000000	0.00000000000000	0.00000000000000	0.00000000000000	0.00000000000000	15.12254500000000	0.00000000000000	0.00000000000000	0.00000000000000	0.00000000000000	
11.78161800000000	10.29394300000000	720.77483800000005	43.03587000000000	0.20356500000000	0.00000000000000	0.11398800000000	0.00000000000000	0.00000000000000	0.00000000000000	0.00000000000000	0.00000000000000	0.00000000000000	0.00000000000000	15.21109200000000	0.00000000000000	0.00000000000000	0.00000000000000	0.00000000000000	
11.78328900000000	9.80953400000000	722.21014200000002	43.10874000000000	0.20255600000000	0.00000000000000	0.11397800000000	0.00000000000000	0.00000000000000	0.00000000000000	0.00000000000000	0.00000000000000	0.00000000000000	0.00000000000000	15.30369700000000	0.00000000000000	0.00000000000000	0.00000000000000	0.00000000000000	
11.78495500000000	9.30960000000000	723.67151799999999	43.18412200000000	0.20153100000000	0.00000000000000	0.11396800000000	0.00000000000000	0.00000000000000	0.00000000000000	0.00000000000000	0.00000000000000	0.00000000000000	0.00000000000000	15.40028600000000	0.00000000000000	0.00000000000000	0.00000000000000	0.00000000000000	
11.78662100000000	8.79423500000000	725.15776000000005	43.26185300000000	0.20049300000000	0.00000000000000	0.11395900000000	0.00000000000000	0.00000000000000	0.00000000000000	0.00000000000000	0.00000000000000	0.00000000000000	0.00000000000000	15.50077800000000	0.00000000000000	0.00000000000000	0.00000000000000	0.00000000000000	
11.78828600000000	8.26358300000000	726.66770599999995	43.34177400000000	0.19944100000000	0.00000000000000	0.11395000000000	0.00000000000000	0.00000000000000	0.00000000000000	0.00000000000000	0.00000000000000	0.00000000000000	0.00000000000000	15.60508100000000	0.00000000000000	0.00000000000000	0.00000000000000	0.00000000000000	
11.78995700000000	7.71783600000000	728.20023600000002	43.42372300000000	0.19837700000000	0.00000000000000	0.11394100000000	0.00000000000000	0.00000000000000	0.00000000000000	0.00000000000000	0.00000000000000	0.00000000000000	0.00000000000000	15.71309300000000	0.00000000000000	0.00000000000000	0.00000000000000	0.00000000000000	
11.79162600000000	7.15723100000000	729.75427200000001	43.50754000000000	0.19730400000000	0.00000000000000	0.11393200000000	0.00000000000000	0.00000000000000	0.00000000000000	0.00000000000000	0.00000000000000	0.00000000000000	0.00000000000000	15.82470600000000	0.00000000000000	0.00000000000000	0.00000000000000	0.00000000000000	
11.79328700000000	6.58205500000000	731.32877499999995	43.59306700000000	0.19622100000000	0.00000000000000	0.11392400000000	0.00000000000000	0.00000000000000	0.00000000000000	0.00000000000000	0.00000000000000	0.00000000000000	0.00000000000000	15.93979900000000	0.00000000000000	0.00000000000000	0.00000000000000	0.00000000000000	
